<?xml version="1.0" encoding="utf-8"?>
<!-- Generator: Adobe Illustrator 16.0.0, SVG Export Plug-In . SVG Version: 6.00 Build 0)  -->
<!DOCTYPE svg PUBLIC "-//W3C//DTD SVG 1.1//EN" "http://www.w3.org/Graphics/SVG/1.1/DTD/svg11.dtd">
<svg version="1.1" id="Layer_1" xmlns="http://www.w3.org/2000/svg" xmlns:xlink="http://www.w3.org/1999/xlink" x="0px" y="0px"
	 width="7.999px" height="6.002px" viewBox="-0.086 0.998 7.999 6.002" enable-background="new -0.086 0.998 7.999 6.002"
	 xml:space="preserve">
<path fill="#687079" d="M0.34,1C0.064,1.044-0.124,1.304-0.08,1.58C-0.036,1.856,0.224,2.044,0.5,2H2l0.09,0.25L2.5,3.5l0.41,1.25
	C2.95,4.88,3.12,5,3.25,5h3.5c0.141,0,0.3-0.12,0.34-0.25L7.9,2.25C7.939,2.12,7.88,2,7.74,2H3.3L2.92,1.28
	C2.837,1.111,2.667,1.003,2.48,1h-2C0.45,0.997,0.42,0.997,0.39,1C0.37,0.999,0.35,0.999,0.33,1H0.34z M3.5,6C3.22,6,3,6.22,3,6.5
	S3.22,7,3.5,7S4,6.78,4,6.5S3.78,6,3.5,6z M6.5,6C6.221,6,6,6.22,6,6.5S6.221,7,6.5,7S7,6.78,7,6.5S6.779,6,6.5,6z"/>
</svg>
